<svg xmlns="http://www.w3.org/2000/svg" viewBox="0 0 300 420" fill="none">
  <rect width="300" height="420" fill="#23271F"></rect>
  <rect x="16" y="16" width="268" height="388" fill="none" stroke="#EFE9DA" stroke-width="1" opacity=".25"></rect>
  <line x1="194.0" y1="210.0" x2="270.0" y2="210.0" stroke="#EFE9DA" stroke-width="1" opacity=".16"></line><line x1="193.7" y1="214.9" x2="269.2" y2="223.4" stroke="#EFE9DA" stroke-width="1" opacity=".16"></line><line x1="192.9" y1="219.8" x2="267.0" y2="236.7" stroke="#EFE9DA" stroke-width="1" opacity=".16"></line><line x1="191.5" y1="224.5" x2="263.3" y2="249.6" stroke="#EFE9DA" stroke-width="1" opacity=".16"></line><line x1="189.6" y1="229.1" x2="258.1" y2="262.1" stroke="#EFE9DA" stroke-width="1" opacity=".16"></line><line x1="187.3" y1="233.4" x2="251.6" y2="273.8" stroke="#EFE9DA" stroke-width="1" opacity=".16"></line><line x1="184.4" y1="237.4" x2="243.8" y2="284.8" stroke="#EFE9DA" stroke-width="1" opacity=".16"></line><line x1="181.1" y1="241.1" x2="234.9" y2="294.9" stroke="#EFE9DA" stroke-width="1" opacity=".16"></line><line x1="177.4" y1="244.4" x2="224.8" y2="303.8" stroke="#EFE9DA" stroke-width="1" opacity=".16"></line><line x1="173.4" y1="247.3" x2="213.8" y2="311.6" stroke="#EFE9DA" stroke-width="1" opacity=".16"></line><line x1="169.1" y1="249.6" x2="202.1" y2="318.1" stroke="#EFE9DA" stroke-width="1" opacity=".16"></line><line x1="164.5" y1="251.5" x2="189.6" y2="323.3" stroke="#EFE9DA" stroke-width="1" opacity=".16"></line><line x1="159.8" y1="252.9" x2="176.7" y2="327.0" stroke="#EFE9DA" stroke-width="1" opacity=".16"></line><line x1="154.9" y1="253.7" x2="163.4" y2="329.2" stroke="#EFE9DA" stroke-width="1" opacity=".16"></line><line x1="150.0" y1="254.0" x2="150.0" y2="330.0" stroke="#EFE9DA" stroke-width="1" opacity=".16"></line><line x1="145.1" y1="253.7" x2="136.6" y2="329.2" stroke="#EFE9DA" stroke-width="1" opacity=".16"></line><line x1="140.2" y1="252.9" x2="123.3" y2="327.0" stroke="#EFE9DA" stroke-width="1" opacity=".16"></line><line x1="135.5" y1="251.5" x2="110.4" y2="323.3" stroke="#EFE9DA" stroke-width="1" opacity=".16"></line><line x1="130.9" y1="249.6" x2="97.9" y2="318.1" stroke="#EFE9DA" stroke-width="1" opacity=".16"></line><line x1="126.6" y1="247.3" x2="86.2" y2="311.6" stroke="#EFE9DA" stroke-width="1" opacity=".16"></line><line x1="122.6" y1="244.4" x2="75.2" y2="303.8" stroke="#EFE9DA" stroke-width="1" opacity=".16"></line><line x1="118.9" y1="241.1" x2="65.1" y2="294.9" stroke="#EFE9DA" stroke-width="1" opacity=".16"></line><line x1="115.6" y1="237.4" x2="56.2" y2="284.8" stroke="#EFE9DA" stroke-width="1" opacity=".16"></line><line x1="112.7" y1="233.4" x2="48.4" y2="273.8" stroke="#EFE9DA" stroke-width="1" opacity=".16"></line><line x1="110.4" y1="229.1" x2="41.9" y2="262.1" stroke="#EFE9DA" stroke-width="1" opacity=".16"></line><line x1="108.5" y1="224.5" x2="36.7" y2="249.6" stroke="#EFE9DA" stroke-width="1" opacity=".16"></line><line x1="107.1" y1="219.8" x2="33.0" y2="236.7" stroke="#EFE9DA" stroke-width="1" opacity=".16"></line><line x1="106.3" y1="214.9" x2="30.8" y2="223.4" stroke="#EFE9DA" stroke-width="1" opacity=".16"></line><line x1="106.0" y1="210.0" x2="30.0" y2="210.0" stroke="#EFE9DA" stroke-width="1" opacity=".16"></line><line x1="106.3" y1="205.1" x2="30.8" y2="196.6" stroke="#EFE9DA" stroke-width="1" opacity=".16"></line><line x1="107.1" y1="200.2" x2="33.0" y2="183.3" stroke="#EFE9DA" stroke-width="1" opacity=".16"></line><line x1="108.5" y1="195.5" x2="36.7" y2="170.4" stroke="#EFE9DA" stroke-width="1" opacity=".16"></line><line x1="110.4" y1="190.9" x2="41.9" y2="157.9" stroke="#EFE9DA" stroke-width="1" opacity=".16"></line><line x1="112.7" y1="186.6" x2="48.4" y2="146.2" stroke="#EFE9DA" stroke-width="1" opacity=".16"></line><line x1="115.6" y1="182.6" x2="56.2" y2="135.2" stroke="#EFE9DA" stroke-width="1" opacity=".16"></line><line x1="118.9" y1="178.9" x2="65.1" y2="125.1" stroke="#EFE9DA" stroke-width="1" opacity=".16"></line><line x1="122.6" y1="175.6" x2="75.2" y2="116.2" stroke="#EFE9DA" stroke-width="1" opacity=".16"></line><line x1="126.6" y1="172.7" x2="86.2" y2="108.4" stroke="#EFE9DA" stroke-width="1" opacity=".16"></line><line x1="130.9" y1="170.4" x2="97.9" y2="101.9" stroke="#EFE9DA" stroke-width="1" opacity=".16"></line><line x1="135.5" y1="168.5" x2="110.4" y2="96.7" stroke="#EFE9DA" stroke-width="1" opacity=".16"></line><line x1="140.2" y1="167.1" x2="123.3" y2="93.0" stroke="#EFE9DA" stroke-width="1" opacity=".16"></line><line x1="145.1" y1="166.3" x2="136.6" y2="90.8" stroke="#EFE9DA" stroke-width="1" opacity=".16"></line><line x1="150.0" y1="166.0" x2="150.0" y2="90.0" stroke="#EFE9DA" stroke-width="1" opacity=".16"></line><line x1="154.9" y1="166.3" x2="163.4" y2="90.8" stroke="#EFE9DA" stroke-width="1" opacity=".16"></line><line x1="159.8" y1="167.1" x2="176.7" y2="93.0" stroke="#EFE9DA" stroke-width="1" opacity=".16"></line><line x1="164.5" y1="168.5" x2="189.6" y2="96.7" stroke="#EFE9DA" stroke-width="1" opacity=".16"></line><line x1="169.1" y1="170.4" x2="202.1" y2="101.9" stroke="#EFE9DA" stroke-width="1" opacity=".16"></line><line x1="173.4" y1="172.7" x2="213.8" y2="108.4" stroke="#EFE9DA" stroke-width="1" opacity=".16"></line><line x1="177.4" y1="175.6" x2="224.8" y2="116.2" stroke="#EFE9DA" stroke-width="1" opacity=".16"></line><line x1="181.1" y1="178.9" x2="234.9" y2="125.1" stroke="#EFE9DA" stroke-width="1" opacity=".16"></line><line x1="184.4" y1="182.6" x2="243.8" y2="135.2" stroke="#EFE9DA" stroke-width="1" opacity=".16"></line><line x1="187.3" y1="186.6" x2="251.6" y2="146.2" stroke="#EFE9DA" stroke-width="1" opacity=".16"></line><line x1="189.6" y1="190.9" x2="258.1" y2="157.9" stroke="#EFE9DA" stroke-width="1" opacity=".16"></line><line x1="191.5" y1="195.5" x2="263.3" y2="170.4" stroke="#EFE9DA" stroke-width="1" opacity=".16"></line><line x1="192.9" y1="200.2" x2="267.0" y2="183.3" stroke="#EFE9DA" stroke-width="1" opacity=".16"></line><line x1="193.7" y1="205.1" x2="269.2" y2="196.6" stroke="#EFE9DA" stroke-width="1" opacity=".16"></line>
  <circle cx="150" cy="210" r="120" fill="none" stroke="#EFE9DA" stroke-width="1" opacity=".22"></circle>
  <circle cx="150" cy="210" r="86" fill="none" stroke="#EFE9DA" stroke-width="1" opacity=".18"></circle>
  <circle cx="150" cy="210" r="44" fill="none" stroke="#EFE9DA" stroke-width="1" opacity=".3"></circle>
  <circle cx="150" cy="210" r="7" fill="#B4623A"></circle>
</svg>